<mxfile host="app.diagrams.net" modified="2024-01-19T12:37:54.259Z" agent="Mozilla/5.0 (Macintosh; Intel Mac OS X 10_15_7) AppleWebKit/537.36 (KHTML, like Gecko) Chrome/120.0.0.0 Safari/537.36" version="21.7.2" etag="PcrGxCS4mk-WCiWiwwYc" type="github">
  <diagram name="Page-1" id="JUPTe5iqe4RbiTQfndYo">
    <mxGraphModel>
      <root>
        <mxCell id="0" />
        <mxCell id="1" parent="0" />
      </root>
    </mxGraphModel>
  </diagram>
</mxfile>
